HIERARCHY
ROOT root
{
	OFFSET 0.000000 0.054209 0.736571
	CHANNELS 6 Xposition Yposition Zposition Xrotation Yrotation Zrotation
	JOINT spine04
	{
		OFFSET 0.000000 -0.030951 0.078753
		CHANNELS 6 Xposition Yposition Zposition Xrotation Yrotation Zrotation
		JOINT spine02
		{
			OFFSET 0.000000 -0.000238 0.104623
			CHANNELS 6 Xposition Yposition Zposition Xrotation Yrotation Zrotation
			JOINT spine01
			{
				OFFSET 0.000000 0.017421 0.109292
				CHANNELS 3 Xrotation Yrotation Zrotation
				JOINT neck01
				{
					OFFSET 0.000000 -0.049753 0.167208
					CHANNELS 6 Xposition Yposition Zposition Xrotation Yrotation Zrotation
					JOINT neck02
					{
						OFFSET 0.000000 0.005512 0.021216
						CHANNELS 3 Xrotation Yrotation Zrotation
						JOINT jaw
						{
							OFFSET 0.000000 -0.043572 0.063271
							CHANNELS 6 Xposition Yposition Zposition Xrotation Yrotation Zrotation
							End Site
							{
								OFFSET 0.000000 -0.008973 0.006556
							}
						}
						JOINT eye.L
						{
							OFFSET 0.023674 -0.098122 0.090003
							CHANNELS 3 Xrotation Yrotation Zrotation
							End Site
							{
								OFFSET 0.001819 -0.030370 -0.004421
							}
						}
						JOINT orbicularis03.L
						{
							OFFSET 0.023674 -0.098122 0.090003
							CHANNELS 3 Xrotation Yrotation Zrotation
							End Site
							{
								OFFSET 0.001761 -0.029014 0.005250
							}
						}
						JOINT eye.R
						{
							OFFSET -0.023674 -0.098122 0.090003
							CHANNELS 3 Xrotation Yrotation Zrotation
							End Site
							{
								OFFSET -0.001819 -0.030370 -0.004420
							}
						}
						JOINT orbicularis03.R
						{
							OFFSET -0.023674 -0.098122 0.090003
							CHANNELS 3 Xrotation Yrotation Zrotation
							End Site
							{
								OFFSET -0.001761 -0.029014 0.005250
							}
						}
						End Site
						{
							OFFSET 0.000000 0.005512 0.021217
						}
					}
				}
				JOINT clavicle.R
				{
					OFFSET -0.018367 -0.058464 0.107155
					CHANNELS 6 Xposition Yposition Zposition Xrotation Yrotation Zrotation
					JOINT upperarm01.R
					{
						OFFSET -0.132020 0.003642 -0.024313
						CHANNELS 6 Xposition Yposition Zposition Xrotation Yrotation Zrotation
						JOINT lowerarm01.R
						{
							OFFSET -0.133637 0.001770 -0.153088
							CHANNELS 6 Xposition Yposition Zposition Xrotation Yrotation Zrotation
							JOINT wrist.R
							{
								OFFSET -0.108575 -0.154814 -0.103768
								CHANNELS 6 Xposition Yposition Zposition Xrotation Yrotation Zrotation
								JOINT finger2-1.R
								{
									OFFSET -0.024321 -0.084906 -0.032804
									CHANNELS 3 Xrotation Yrotation Zrotation
									JOINT finger2-2.R
									{
										OFFSET -0.002927 -0.018838 -0.012652
										CHANNELS 3 Xrotation Yrotation Zrotation
										JOINT finger2-3.R
										{
											OFFSET 0.000460 -0.015088 -0.013862
											CHANNELS 3 Xrotation Yrotation Zrotation
											End Site
											{
												OFFSET 0.003042 -0.016084 -0.016987
											}
										}
									}
								}
								JOINT finger3-1.R
								{
									OFFSET -0.038828 -0.069770 -0.043127
									CHANNELS 3 Xrotation Yrotation Zrotation
									JOINT finger3-2.R
									{
										OFFSET -0.006387 -0.018854 -0.022184
										CHANNELS 3 Xrotation Yrotation Zrotation
										JOINT finger3-3.R
										{
											OFFSET -0.002379 -0.015757 -0.018305
											CHANNELS 3 Xrotation Yrotation Zrotation
											End Site
											{
												OFFSET 0.000156 -0.013802 -0.019326
											}
										}
									}
								}
								JOINT finger4-1.R
								{
									OFFSET -0.045586 -0.054771 -0.050312
									CHANNELS 3 Xrotation Yrotation Zrotation
									JOINT finger4-2.R
									{
										OFFSET -0.008217 -0.013209 -0.021152
										CHANNELS 3 Xrotation Yrotation Zrotation
										JOINT finger4-3.R
										{
											OFFSET -0.003839 -0.011894 -0.018031
											CHANNELS 3 Xrotation Yrotation Zrotation
											End Site
											{
												OFFSET -0.002024 -0.010563 -0.020894
											}
										}
									}
								}
								JOINT finger5-1.R
								{
									OFFSET -0.046820 -0.037780 -0.058682
									CHANNELS 3 Xrotation Yrotation Zrotation
									JOINT finger5-2.R
									{
										OFFSET -0.005233 -0.007322 -0.016539
										CHANNELS 3 Xrotation Yrotation Zrotation
										JOINT finger5-3.R
										{
											OFFSET -0.001524 -0.005483 -0.012548
											CHANNELS 3 Xrotation Yrotation Zrotation
											End Site
											{
												OFFSET -0.002248 -0.006725 -0.016024
											}
										}
									}
								}
								JOINT finger1-1.R
								{
									OFFSET -0.000927 -0.039280 -0.005363
									CHANNELS 3 Xrotation Yrotation Zrotation
									JOINT finger1-2.R
									{
										OFFSET 0.018386 -0.018805 -0.006895
										CHANNELS 3 Xrotation Yrotation Zrotation
										JOINT finger1-3.R
										{
											OFFSET 0.010991 -0.028095 -0.011249
											CHANNELS 3 Xrotation Yrotation Zrotation
											End Site
											{
												OFFSET 0.004840 -0.019091 -0.014527
											}
										}
									}
								}
							}
						}
					}
				}
				JOINT clavicle.L
				{
					OFFSET 0.018367 -0.058464 0.107155
					CHANNELS 6 Xposition Yposition Zposition Xrotation Yrotation Zrotation
					JOINT upperarm01.L
					{
						OFFSET 0.132020 0.003642 -0.024313
						CHANNELS 6 Xposition Yposition Zposition Xrotation Yrotation Zrotation
						JOINT lowerarm01.L
						{
							OFFSET 0.133637 0.001770 -0.153088
							CHANNELS 6 Xposition Yposition Zposition Xrotation Yrotation Zrotation
							JOINT wrist.L
							{
								OFFSET 0.108574 -0.154814 -0.103768
								CHANNELS 6 Xposition Yposition Zposition Xrotation Yrotation Zrotation
								JOINT finger2-1.L
								{
									OFFSET 0.024321 -0.084906 -0.032804
									CHANNELS 3 Xrotation Yrotation Zrotation
									JOINT finger2-2.L
									{
										OFFSET 0.002927 -0.018838 -0.012653
										CHANNELS 3 Xrotation Yrotation Zrotation
										JOINT finger2-3.L
										{
											OFFSET -0.000460 -0.015088 -0.013862
											CHANNELS 3 Xrotation Yrotation Zrotation
											End Site
											{
												OFFSET -0.003042 -0.016083 -0.016987
											}
										}
									}
								}
								JOINT finger3-1.L
								{
									OFFSET 0.038828 -0.069770 -0.043127
									CHANNELS 3 Xrotation Yrotation Zrotation
									JOINT finger3-2.L
									{
										OFFSET 0.006387 -0.018854 -0.022184
										CHANNELS 3 Xrotation Yrotation Zrotation
										JOINT finger3-3.L
										{
											OFFSET 0.002379 -0.015757 -0.018305
											CHANNELS 3 Xrotation Yrotation Zrotation
											End Site
											{
												OFFSET -0.000156 -0.013802 -0.019326
											}
										}
									}
								}
								JOINT finger4-1.L
								{
									OFFSET 0.045586 -0.054771 -0.050312
									CHANNELS 3 Xrotation Yrotation Zrotation
									JOINT finger4-2.L
									{
										OFFSET 0.008217 -0.013209 -0.021152
										CHANNELS 3 Xrotation Yrotation Zrotation
										JOINT finger4-3.L
										{
											OFFSET 0.003838 -0.011894 -0.018031
											CHANNELS 3 Xrotation Yrotation Zrotation
											End Site
											{
												OFFSET 0.002024 -0.010563 -0.020894
											}
										}
									}
								}
								JOINT finger5-1.L
								{
									OFFSET 0.046820 -0.037780 -0.058682
									CHANNELS 3 Xrotation Yrotation Zrotation
									JOINT finger5-2.L
									{
										OFFSET 0.005233 -0.007322 -0.016539
										CHANNELS 3 Xrotation Yrotation Zrotation
										JOINT finger5-3.L
										{
											OFFSET 0.001524 -0.005484 -0.012548
											CHANNELS 3 Xrotation Yrotation Zrotation
											End Site
											{
												OFFSET 0.002248 -0.006725 -0.016024
											}
										}
									}
								}
								JOINT finger1-1.L
								{
									OFFSET 0.000927 -0.039280 -0.005363
									CHANNELS 3 Xrotation Yrotation Zrotation
									JOINT finger1-2.L
									{
										OFFSET -0.018386 -0.018805 -0.006895
										CHANNELS 3 Xrotation Yrotation Zrotation
										JOINT finger1-3.L
										{
											OFFSET -0.010991 -0.028095 -0.011249
											CHANNELS 3 Xrotation Yrotation Zrotation
											End Site
											{
												OFFSET -0.004840 -0.019091 -0.014527
											}
										}
									}
								}
							}
						}
					}
				}
			}
		}
	}
	JOINT upperleg01.R
	{
		OFFSET -0.087495 -0.048056 0.004242
		CHANNELS 6 Xposition Yposition Zposition Xrotation Yrotation Zrotation
		JOINT lowerleg01.R
		{
			OFFSET -0.034522 -0.027831 -0.333803
			CHANNELS 6 Xposition Yposition Zposition Xrotation Yrotation Zrotation
			JOINT foot.R
			{
				OFFSET -0.037458 0.009412 -0.349633
				CHANNELS 3 Xrotation Yrotation Zrotation
				JOINT toe1-1.R
				{
					OFFSET -0.003290 -0.101211 -0.050981
					CHANNELS 6 Xposition Yposition Zposition Xrotation Yrotation Zrotation
					End Site
					{
						OFFSET 0.000524 -0.066142 0.003009
					}
				}
			}
		}
	}
	JOINT upperleg01.L
	{
		OFFSET 0.087495 -0.048056 0.004242
		CHANNELS 6 Xposition Yposition Zposition Xrotation Yrotation Zrotation
		JOINT lowerleg01.L
		{
			OFFSET 0.034522 -0.027831 -0.333803
			CHANNELS 6 Xposition Yposition Zposition Xrotation Yrotation Zrotation
			JOINT foot.L
			{
				OFFSET 0.037458 0.009412 -0.349633
				CHANNELS 3 Xrotation Yrotation Zrotation
				JOINT toe1-1.L
				{
					OFFSET 0.003290 -0.101211 -0.050981
					CHANNELS 6 Xposition Yposition Zposition Xrotation Yrotation Zrotation
					End Site
					{
						OFFSET -0.000524 -0.066142 0.003009
					}
				}
			}
		}
	}
}
MOTION
Frames: 4
Frame Time:	0.016667
0.3538 -0.052 0.7463 -4.2407 3.3407 -118.0202 0.0004 -0.0362 0.0728 1.5062 -2.0299 -1.1128 0.0005 -0.0027 0.0981 3.5222 1.8143 -1.2488 0 0 0 0 -0.0431 0.1616 14.7724 -3.741 -13.1028 -30.1971 -2.3211 -8.2805 0 -0.0436 0.0633 0 0 0 4.643 0.109 2.9616 0 0 0 4.5732 0.14 3.7649 0 0 0 -0.0184 -0.0581 0.1069 0.2912 -4.6068 -2.3776 -0.1356 -0.0037 -0.0169 25.0223 -15.2941 4.1833 -0.1336 0.0017 -0.153 -28.3118 -12.7871 52.1811 -0.1085 -0.1548 -0.1037 0.1496 33.2419 -12.6109 44.2975 -24.3695 34.3692 46.897 -17.7606 40.1692 53.5088 -16.7959 45.1871 -0.7882 -6.3396 3.2673 16.8951 -20.3387 12.4407 11.7466 -16.876 8.1971 31.5729 -38.2417 38.9072 54.2152 -43.2841 49.1498 52.105 -44.1706 50.0658 -4.1273 -18.4294 8.1539 15.3526 -27.4545 7.0034 16.5568 -29.893 9.3087 -4.5011 -32.1306 -36.3586 16.0465 15.5162 -40.5498 10.5595 22.6999 -51.9632 0.0184 -0.0581 0.1069 -0.2624 3.3005 -1.2151 0.1356 -0.0037 -0.0169 38.9476 15.8995 0.7959 0.1336 0.0017 -0.153 -33.2434 26.7343 -58.5962 0.1085 -0.1547 -0.1037 -21.5248 -39.449 -13.7692 47.7287 24.0098 -37.6898 51.2381 16.8161 -44.6227 56.1086 15.904 -48.1353 20.0414 24.7255 -25.9366 39.5848 31.2653 -37.0112 36.7141 30.9234 -35.1978 31.5393 38.0462 -39.0057 54.1446 43.0581 -49.2254 52.0284 43.9561 -50.1509 -4.4358 15.0775 -6.8009 14.2085 25.6637 -6.0227 15.1965 28.0195 -8.1264 -9.0294 33.6511 21.3063 20.0309 -14.3956 39.8642 14.0503 -20.2543 51.6687 -0.0875 -0.0481 0.0042 3.613 4.1553 -5.7205 -0.0345 -0.0278 -0.3338 6.5233 1.3568 -0.7347 -8.7432 -4.3558 -0.7855 -0.0033 -0.1012 -0.051 0 0 0 0.0875 -0.0481 0.0042 -1.3513 -1.2842 -12.5259 0.0346 -0.0279 -0.3343 -6.2378 0.2457 -0.6501 24.1289 7.3213 -1.9831 0.0033 -0.1012 -0.051 -14.2911 2.1831 -4.0006 
0.3451 -0.0571 0.7458 -3.9285 3.4872 -119.302 0.0004 -0.0362 0.0728 1.4423 -2.1097 -1.2201 0.0005 -0.0027 0.0981 3.4114 1.9034 -1.3713 0 0 0 0 -0.0431 0.1616 14.7644 -4.01 -14.0903 -29.8245 -2.9928 -9.0765 0 -0.0436 0.0633 0 0 0 4.6863 0.1065 2.7739 0 0 0 4.6147 0.1401 3.6386 0 0 0 -0.0184 -0.0581 0.1069 0.2994 -4.607 -2.4127 -0.1356 -0.0037 -0.0169 24.947 -14.4092 4.08 -0.1336 0.0017 -0.153 -28.7967 -13.3503 52.2919 -0.1085 -0.1548 -0.1037 -0.6048 32.5713 -12.2251 44.3082 -24.3691 34.3799 46.9058 -17.7599 40.1774 53.5184 -16.7943 45.1961 -0.7998 -6.2911 3.2271 16.8701 -20.3186 12.4132 11.6983 -16.8299 8.1439 31.5729 -38.2417 38.9072 54.2151 -43.2841 49.1499 52.105 -44.1706 50.0659 -4.1323 -18.3963 8.138 15.3382 -27.4352 6.989 16.5318 -29.8632 9.2838 -4.5011 -32.1305 -36.3586 16.0465 15.5162 -40.5498 10.5595 22.6999 -51.9632 0.0184 -0.0581 0.1069 -0.2577 3.3004 -1.1935 0.1356 -0.0037 -0.0169 39.1244 15.6 0.8319 0.1336 0.0017 -0.153 -33.4762 27.1242 -58.8043 0.1085 -0.1547 -0.1037 -21.9199 -38.6271 -14.1919 47.6833 24.0128 -37.6429 51.1994 16.8217 -44.5864 56.0705 15.9119 -48.0997 19.4927 24.4491 -25.3909 39.0304 31.1266 -36.423 36.1556 30.7646 -34.6076 31.5267 38.0419 -38.994 54.132 43.0564 -49.2124 52.0153 43.9543 -50.1377 -4.8745 14.4019 -6.4736 13.8056 25.0891 -5.621 14.7535 27.4486 -7.6855 -9.0294 33.6512 21.3063 20.0309 -14.3956 39.8642 14.0503 -20.2544 51.6687 -0.0875 -0.0481 0.0042 4.5331 4.7236 -5.1011 -0.0345 -0.0278 -0.3338 5.4468 1.2099 -0.6 -8.1291 -5.1159 -0.4936 -0.0033 -0.1012 -0.051 0 0 0 0.0875 -0.0481 0.0042 -0.2733 -0.972 -10.9646 0.0346 -0.0279 -0.3343 -6.2378 0.2457 -0.65 21.4857 6.9712 -1.7667 0.0033 -0.1012 -0.051 -12.7338 1.8167 -3.4466 
0.338 -0.0613 0.7455 -3.6447 3.6274 -120.3254 0.0004 -0.0362 0.0727 1.4078 -2.166 -1.3049 0.0006 -0.0027 0.098 3.3018 1.9686 -1.4672 0 0 0 0 -0.043 0.1616 14.7638 -4.2088 -14.8312 -29.2413 -3.6068 -9.7308 0 -0.0436 0.0633 0.0001 0 0 4.6674 0.1123 2.8315 0 0 0 4.5923 0.1464 3.722 0 0 0 -0.0184 -0.0581 0.1069 0.3066 -4.6072 -2.4431 -0.1356 -0.0037 -0.0169 24.8127 -13.6671 4.0133 -0.1336 0.0017 -0.153 -29.073 -13.7452 52.2395 -0.1085 -0.1548 -0.1037 -1.2645 31.9141 -11.9721 44.3121 -24.3689 34.3835 46.9088 -17.7597 40.1802 53.5218 -16.7937 45.1994 -0.813 -6.2574 3.1992 16.8488 -20.3015 12.3898 11.6663 -16.7992 8.1086 31.5729 -38.2417 38.9072 54.2152 -43.2841 49.1499 52.1049 -44.1706 50.0659 -4.1353 -18.3786 8.1294 15.3304 -27.4247 6.9812 16.5187 -29.8474 9.2707 -4.5011 -32.1305 -36.3586 16.0465 15.5162 -40.5498 10.5595 22.6999 -51.9632 0.0184 -0.0581 0.1069 -0.2578 3.3005 -1.194 0.1356 -0.0037 -0.0169 39.0594 15.442 0.7907 0.1336 0.0017 -0.153 -33.5236 27.312 -58.8117 0.1085 -0.1547 -0.1037 -22.1461 -37.8896 -14.4762 47.6061 24.0177 -37.5625 51.1329 16.8313 -44.5244 56.0052 15.9255 -48.0387 19.0513 24.2231 -24.9535 38.5819 31.0105 -35.947 35.7069 30.6329 -34.1332 31.5225 38.0404 -38.9901 54.1278 43.0558 -49.208 52.0109 43.9537 -50.1332 -5.2039 13.8897 -6.2305 13.5015 24.6475 -5.3177 14.4211 27.0119 -7.3547 -9.0294 33.6512 21.3063 20.0309 -14.3956 39.8642 14.0503 -20.2544 51.6687 -0.0875 -0.0481 0.0042 5.5479 5.2146 -4.6585 -0.0345 -0.0278 -0.3338 4.1017 1.0356 -0.4383 -7.3715 -5.6808 -0.2946 -0.0033 -0.1012 -0.051 0 0 0 0.0875 -0.0481 0.0042 0.6993 -0.6587 -9.635 0.0346 -0.0279 -0.3343 -6.2378 0.2457 -0.6501 19.1733 6.693 -1.5796 0.0033 -0.1012 -0.051 -11.5309 1.5411 -3.0191 
0.3291 -0.0666 0.7447 -3.2428 3.8392 -121.5446 0.0005 -0.0362 0.0727 1.3789 -2.2153 -1.4345 0.0006 -0.0027 0.098 3.1806 2.0642 -1.6134 0 0 0 0 -0.043 0.1615 14.7561 -4.4489 -15.6865 -28.1363 -4.4547 -10.5805 0 -0.0436 0.0633 0.0001 -0.0001 0 3.9266 0.0846 1.7859 0 0 0 3.8796 0.1136 2.6835 0 0 0 -0.0184 -0.0581 0.1069 0.3149 -4.6075 -2.4789 -0.1356 -0.0037 -0.0169 24.5407 -12.7021 3.9553 -0.1336 0.0017 -0.153 -29.3671 -14.2016 52.0758 -0.1085 -0.1548 -0.1037 -2.0936 30.9591 -11.723 44.318 -24.3686 34.389 46.9132 -17.7594 40.1844 53.5274 -16.7928 45.2046 -0.8297 -6.2017 3.1531 16.8175 -20.2765 12.3555 11.6122 -16.7473 8.0489 31.5729 -38.2417 38.9072 54.2152 -43.2841 49.1499 52.105 -44.1706 50.0659 -4.1398 -18.345 8.1133 15.316 -27.4055 6.9668 16.4938 -29.8175 9.2458 -4.5011 -32.1305 -36.3587 16.0465 15.5162 -40.5498 10.5595 22.7 -51.9632 0.0184 -0.0581 0.1069 -0.263 3.3007 -1.2175 0.1356 -0.0037 -0.0169 38.6668 15.4448 0.6992 0.1336 0.0017 -0.153 -33.3438 27.3435 -58.5039 0.1085 -0.1547 -0.1037 -22.4279 -36.8372 -14.7966 47.2687 24.0379 -37.2111 50.8424 16.8722 -44.2527 55.7199 15.9841 -47.7721 16.1074 22.6146 -22.0559 35.5587 30.1307 -32.7344 32.7106 29.655 -30.9622 31.5162 38.0383 -38.9843 54.1216 43.055 -49.2016 52.0045 43.9529 -50.1266 -5.9451 12.7142 -5.688 12.8189 23.6315 -4.6372 13.676 26.0069 -6.6134 -9.0295 33.6512 21.3063 20.0309 -14.3956 39.8642 14.0503 -20.2544 51.6687 -0.0875 -0.0481 0.0042 6.718 5.8236 -4.1325 -0.0345 -0.0278 -0.3338 2.6705 0.8465 -0.27 -6.4782 -6.4051 -0.0615 -0.0033 -0.1012 -0.051 0 0 0 0.0875 -0.0481 0.0042 2.0075 -0.2394 -8.3863 0.0346 -0.0279 -0.3342 -6.2378 0.2457 -0.65 15.7197 5.7027 -1.4353 0.0033 -0.1012 -0.051 -10.1922 1.1724 -2.4098 
